<svg id="Capa_1" enable-background="new 0 0 512 512" height="512" viewBox="0 0 512 512" width="512" xmlns="http://www.w3.org/2000/svg"><g><path d="m81.18 348.326h-47.067c-18.84 0-34.113-15.273-34.113-34.113v-115.359c0-18.84 15.273-34.113 34.113-34.113h47.067l31.066 85.432z" fill="#f1e64c"/><path d="m97.722 314.952-16.539 33.366h-47.069c-18.836 0-34.114-15.268-34.114-34.105v-67.085c0 18.846 15.278 34.114 34.114 34.114h47.069z" fill="#f1ce64"/><path d="m226.414 428.267-145.234-79.941v-183.584l145.234-79.941 28.187 171.199z" fill="#687780"/><path d="m249.177 357.988-22.763 70.279-145.231-79.949v-67.076l145.231 21.518z" fill="#4e5959"/><path d="m254.6 256.386-.091.147.036-.229z" fill="#4e5959"/><path d="m254.601 469.917c-15.567 0-28.187-12.62-28.187-28.187v-371.46c0-15.567 12.62-28.187 28.187-28.187 15.567 0 28.187 12.62 28.187 28.187v371.46c0 15.567-12.62 28.187-28.187 28.187z" fill="#f1e64c"/><path d="m282.787 314.952v126.779c0 15.571-12.616 28.186-28.186 28.186-15.571 0-28.186-12.616-28.186-28.186v-126.779c0 15.571 12.616 28.186 28.186 28.186s28.186-12.615 28.186-28.186z" fill="#f1ce64"/><path d="m425.897 427.344c-6.653 0-13.304-2.537-18.38-7.613-10.151-10.151-10.151-26.609 0-36.76 33.853-33.853 52.497-78.945 52.497-126.97s-18.644-93.118-52.497-126.971c-10.151-10.151-10.151-26.609 0-36.76 10.152-10.151 26.608-10.151 36.76 0 43.672 43.671 67.723 101.819 67.723 163.73s-24.051 120.059-67.723 163.73c-5.075 5.075-11.729 7.614-18.38 7.614z" fill="#e1e9ee"/><path d="m354.013 355.46c-6.653 0-13.304-2.537-18.38-7.613-10.151-10.151-10.151-26.609 0-36.76 14.715-14.714 22.818-34.277 22.818-55.087 0-20.809-8.104-40.373-22.818-55.087-10.151-10.151-10.151-26.609 0-36.76 10.152-10.151 26.608-10.151 36.76 0 24.533 24.533 38.044 57.152 38.044 91.847s-13.511 67.314-38.044 91.847c-5.074 5.074-11.728 7.613-18.38 7.613z" fill="#e1e9ee"/><g fill="#d4e1e6"><path d="m431.257 419.724c1.965 1.965 4.159 3.556 6.498 4.751-3.712 1.913-7.788 2.87-11.863 2.87-6.644 0-13.298-2.537-18.372-7.621-10.158-10.147-10.158-26.606 0-36.754 33.854-33.854 52.496-78.947 52.496-126.971s-18.642-93.118-52.496-126.971c-10.158-10.148-10.158-26.607 0-36.765 8.183-8.182 20.472-9.763 30.246-4.741-2.35 1.196-4.544 2.776-6.509 4.741-10.148 10.158-10.148 26.617 0 36.765 33.854 33.853 52.496 78.946 52.496 126.971s-18.642 93.118-52.496 126.971c-10.148 10.147-10.148 26.606 0 36.754z"/><path d="m359.381 347.848c1.965 1.965 4.159 3.545 6.509 4.741-3.712 1.913-7.798 2.869-11.874 2.869-6.654 0-13.309-2.537-18.382-7.611-10.148-10.158-10.148-26.617 0-36.765 14.712-14.712 22.822-34.279 22.822-55.085 0-20.815-8.11-40.372-22.822-55.085-10.148-10.158-10.148-26.617 0-36.765 8.183-8.183 20.483-9.773 30.256-4.741-2.35 1.196-4.543 2.776-6.509 4.741-10.158 10.148-10.158 26.606 0 36.765 14.712 14.713 22.812 34.269 22.812 55.085 0 20.805-8.1 40.373-22.812 55.085-10.158 10.149-10.158 26.608 0 36.766z"/></g></g></svg>