<?xml version="1.0" encoding="UTF-8" standalone="no" ?>
<!DOCTYPE svg PUBLIC "-//W3C//DTD SVG 1.1//EN" "http://www.w3.org/Graphics/SVG/1.1/DTD/svg11.dtd">
<svg xmlns="http://www.w3.org/2000/svg" xmlns:xlink="http://www.w3.org/1999/xlink" version="1.1" width="500" height="500" viewBox="0 0 500 500" xml:space="preserve">
<desc>Created with Fabric.js 4.6.0</desc>
<defs>
</defs>
<g transform="matrix(3.08 0 0 3.08 250 250)" id="VsYZ4msNT54wGsZmnCq3x"  >
<filter id="SVGID_7" y="-25%" height="150%" x="-25%" width="150%" >
	<feGaussianBlur in="SourceAlpha" stdDeviation="3.5"></feGaussianBlur>
	<feOffset dx="0" dy="0" result="oBlur" ></feOffset>
	<feFlood flood-color="rgb(0,0,0)" flood-opacity="1"/>
	<feComposite in2="oBlur" operator="in" />
	<feMerge>
		<feMergeNode></feMergeNode>
		<feMergeNode in="SourceGraphic"></feMergeNode>
	</feMerge>
</filter>
<path style="stroke: rgb(244,234,194); stroke-width: 0; stroke-dasharray: none; stroke-linecap: butt; stroke-dashoffset: 0; stroke-linejoin: miter; stroke-miterlimit: 4; fill: rgb(161,105,255); fill-rule: nonzero; opacity: 1;filter: url(#SVGID_7);" vector-effect="non-scaling-stroke"  transform=" translate(0, 0)" d="M 0 -66.18845 C 36.53602 -66.18845 66.18845 -36.536030000000004 66.18845 0 C 66.18845 36.53602 36.536030000000004 66.18845 0 66.18845 C -36.53602 66.18845 -66.18845 36.536030000000004 -66.18845 0 C -66.18845 -36.53602 -36.536030000000004 -66.18845 0 -66.18845 z" stroke-linecap="round" />
</g>
<g transform="matrix(-0.04 -3.49 -3.49 0.04 250 250)" id="color_x5F_2"  >
<path style="stroke: none; stroke-width: 0; stroke-dasharray: none; stroke-linecap: butt; stroke-dashoffset: 0; stroke-linejoin: miter; stroke-miterlimit: 4; fill: rgb(255,255,255); fill-rule: nonzero; opacity: 1;" vector-effect="non-scaling-stroke"  transform=" translate(-40.05, -40)" d="M 64.6 13.9 L 65.5 12.8 C 67.2 10.8 67.7 8.5 67 6.500000000000001 C 66.2 4.500000000000001 64.3 3.100000000000001 61.7 2.700000000000001 L 45.1 0.1 C 42.5 -0.30000000000000004 40.2 0.4 38.9 2.1 C 37.5 3.7 37.3 6.1 38.1 8.6 L 43.7 24.4 C 44.6 26.9 46.300000000000004 28.5 48.400000000000006 28.9 C 50.50000000000001 29.299999999999997 52.60000000000001 28.299999999999997 54.300000000000004 26.299999999999997 L 55.300000000000004 25.099999999999998 C 60.300000000000004 29.5 63.1 35.699999999999996 63.1 42.4 C 63.1 55.2 52.7 65.6 39.900000000000006 65.6 C 27.10000000000001 65.6 16.8 55.1 16.8 42.3 C 16.8 34.3 20.8 26.999999999999996 27.6 22.699999999999996 C 29.200000000000003 21.699999999999996 30.400000000000002 20.099999999999994 30.8 18.199999999999996 C 31.2 16.299999999999997 30.900000000000002 14.399999999999995 29.900000000000002 12.699999999999996 C 28.900000000000002 11.099999999999996 27.3 9.899999999999995 25.400000000000002 9.499999999999996 C 23.500000000000004 9.099999999999996 21.6 9.399999999999997 19.900000000000002 10.399999999999997 C 8.900000000000002 17.4 2.400000000000002 29.299999999999997 2.400000000000002 42.199999999999996 C 2.3 63.1 19.2 80 40 80 C 60.8 80 77.7 63.1 77.7 42.3 C 77.7 31.3 72.9 21 64.6 13.9 z" stroke-linecap="round" />
</g>
</svg>