<?xml version="1.0" encoding="UTF-8" standalone="no"?>
<!DOCTYPE svg PUBLIC "-//W3C//DTD SVG 1.1//EN" "http://www.w3.org/Graphics/SVG/1.1/DTD/svg11.dtd">
<svg version="1.1" xmlns="http://www.w3.org/2000/svg" xmlns:xlink="http://www.w3.org/1999/xlink" preserveAspectRatio="xMidYMid meet" viewBox="0 0 640 640" width="640" height="640"><defs><path d="M619.26 318.53C619.26 482.88 485.82 616.32 321.47 616.32C157.12 616.32 23.68 482.88 23.68 318.53C23.68 154.18 157.12 20.74 321.47 20.74C485.82 20.74 619.26 154.18 619.26 318.53Z" id="ajnyE2lkd"></path><linearGradient id="gradientc6VgdvZ1U" gradientUnits="userSpaceOnUse" x1="48.99" y1="29.83" x2="640.67" y2="608.53"><stop style="stop-color: #51ff00;stop-opacity: 1" offset="0%"></stop><stop style="stop-color: #000f30;stop-opacity: 1" offset="100%"></stop></linearGradient><path d="M205.99 318.53C205.99 335.72 192.04 349.67 174.85 349.67C157.66 349.67 143.71 335.72 143.71 318.53C143.71 301.34 157.66 287.39 174.85 287.39C192.04 287.39 205.99 301.34 205.99 318.53Z" id="dr2mR0yl8"></path><path d="M352.61 318.53C352.61 335.72 338.66 349.67 321.47 349.67C304.28 349.67 290.33 335.72 290.33 318.53C290.33 301.34 304.28 287.39 321.47 287.39C338.66 287.39 352.61 301.34 352.61 318.53Z" id="f10jwBLkBy"></path><path d="M504.94 318.53C504.94 335.72 490.99 349.67 473.8 349.67C456.61 349.67 442.66 335.72 442.66 318.53C442.66 301.34 456.61 287.39 473.8 287.39C490.99 287.39 504.94 301.34 504.94 318.53Z" id="a6a4mGEKa"></path></defs><g><g><g><g><filter id="shadow14018156" x="-70.32" y="-73.26" width="783.57" height="783.57" filterUnits="userSpaceOnUse" primitiveUnits="userSpaceOnUse"><feFlood></feFlood><feComposite in2="SourceAlpha" operator="in"></feComposite><feGaussianBlur stdDeviation="6.32"></feGaussianBlur><feOffset dx="0" dy="0" result="afterOffset"></feOffset><feFlood flood-color="#000000" flood-opacity="0.5"></feFlood><feComposite in2="afterOffset" operator="in"></feComposite><feMorphology operator="dilate" radius="9"></feMorphology><feComposite in2="SourceAlpha" operator="out"></feComposite></filter><path d="M619.26 318.53C619.26 482.88 485.82 616.32 321.47 616.32C157.12 616.32 23.68 482.88 23.68 318.53C23.68 154.18 157.12 20.74 321.47 20.74C485.82 20.74 619.26 154.18 619.26 318.53Z" id="b2nLcMbqvf" fill="white" fill-opacity="1" filter="url(#shadow14018156)"></path></g><use xlink:href="#ajnyE2lkd" opacity="1" fill="url(#gradientc6VgdvZ1U)"></use></g><g><g><filter id="shadow8310431" x="42.71" y="186.39" width="264.28" height="264.28" filterUnits="userSpaceOnUse" primitiveUnits="userSpaceOnUse"><feFlood></feFlood><feComposite in2="SourceAlpha" operator="in"></feComposite><feGaussianBlur stdDeviation="6.93"></feGaussianBlur><feOffset dx="0" dy="0" result="afterOffset"></feOffset><feFlood flood-color="#000000" flood-opacity="0.5"></feFlood><feComposite in2="afterOffset" operator="in"></feComposite><feMorphology operator="dilate" radius="0"></feMorphology><feComposite in2="SourceAlpha" operator="out"></feComposite></filter><path d="M205.99 318.53C205.99 335.72 192.04 349.67 174.85 349.67C157.66 349.67 143.71 335.72 143.71 318.53C143.71 301.34 157.66 287.39 174.85 287.39C192.04 287.39 205.99 301.34 205.99 318.53Z" id="a169HL9U9d" fill="white" fill-opacity="1" filter="url(#shadow8310431)"></path></g><use xlink:href="#dr2mR0yl8" opacity="1" fill="#ffffff" fill-opacity="1"></use></g><g><g><filter id="shadow6030487" x="189.33" y="186.39" width="264.28" height="264.28" filterUnits="userSpaceOnUse" primitiveUnits="userSpaceOnUse"><feFlood></feFlood><feComposite in2="SourceAlpha" operator="in"></feComposite><feGaussianBlur stdDeviation="6.93"></feGaussianBlur><feOffset dx="0" dy="0" result="afterOffset"></feOffset><feFlood flood-color="#000000" flood-opacity="0.5"></feFlood><feComposite in2="afterOffset" operator="in"></feComposite><feMorphology operator="dilate" radius="0"></feMorphology><feComposite in2="SourceAlpha" operator="out"></feComposite></filter><path d="M352.61 318.53C352.61 335.72 338.66 349.67 321.47 349.67C304.28 349.67 290.33 335.72 290.33 318.53C290.33 301.34 304.28 287.39 321.47 287.39C338.66 287.39 352.61 301.34 352.61 318.53Z" id="a2cBVxtcsX" fill="white" fill-opacity="1" filter="url(#shadow6030487)"></path></g><use xlink:href="#f10jwBLkBy" opacity="1" fill="#ffffff" fill-opacity="1"></use></g><g><g><filter id="shadow12851867" x="341.66" y="186.39" width="264.28" height="264.28" filterUnits="userSpaceOnUse" primitiveUnits="userSpaceOnUse"><feFlood></feFlood><feComposite in2="SourceAlpha" operator="in"></feComposite><feGaussianBlur stdDeviation="6.93"></feGaussianBlur><feOffset dx="0" dy="0" result="afterOffset"></feOffset><feFlood flood-color="#000000" flood-opacity="0.5"></feFlood><feComposite in2="afterOffset" operator="in"></feComposite><feMorphology operator="dilate" radius="0"></feMorphology><feComposite in2="SourceAlpha" operator="out"></feComposite></filter><path d="M504.94 318.53C504.94 335.72 490.99 349.67 473.8 349.67C456.61 349.67 442.66 335.72 442.66 318.53C442.66 301.34 456.61 287.39 473.8 287.39C490.99 287.39 504.94 301.34 504.94 318.53Z" id="bk0cc5FFo" fill="white" fill-opacity="1" filter="url(#shadow12851867)"></path></g><use xlink:href="#a6a4mGEKa" opacity="1" fill="#ffffff" fill-opacity="1"></use></g></g></g></svg>